<svg width="28" height="27" viewBox="0 0 28 27" fill="none" xmlns="http://www.w3.org/2000/svg">
<g clip-path="url(#clip0_330_26)">
<path d="M14 5.49389e-06C10.6742 -0.00182604 7.45625 1.16702 4.92265 3.2972C2.38905 5.42737 0.705235 8.37974 0.17279 11.6255C-0.359656 14.8713 0.294044 18.1985 2.01681 21.0112C3.73958 23.8238 6.41888 25.9383 9.57485 26.9758C10.2748 27.1038 10.5 26.6747 10.5 26.3102V23.7334C6.60568 24.5685 5.79485 22.1001 5.79485 22.1001C5.53851 21.2614 4.9868 20.5413 4.23968 20.0701C2.96918 19.2107 4.33652 19.2292 4.33652 19.2292C4.7805 19.2895 5.20465 19.4495 5.57651 19.6968C5.94838 19.9441 6.25811 20.2722 6.48202 20.656C6.67126 20.9978 6.92722 21.2992 7.23507 21.5425C7.54291 21.7858 7.89654 21.9664 8.27545 22.0737C8.65436 22.1809 9.05104 22.2128 9.44251 22.1675C9.83397 22.1221 10.2124 22.0004 10.556 21.8095C10.6192 21.1089 10.9347 20.454 11.445 19.9639C8.33585 19.6087 5.06685 18.4218 5.06685 13.1194C5.04714 11.7438 5.56348 10.4135 6.50885 9.4041C6.08287 8.20968 6.13335 6.89965 6.65002 5.74074C6.65002 5.74074 7.81668 5.36932 10.5 7.15948C12.7946 6.53815 15.2159 6.53815 17.5105 7.15948C20.1833 5.36932 21.3605 5.74074 21.3605 5.74074C21.8765 6.89999 21.9257 8.21019 21.4982 9.4041C22.4444 10.4129 22.9605 11.7437 22.939 13.1194C22.939 18.4356 19.6642 19.6064 16.5469 19.949C16.8811 20.2845 17.139 20.6867 17.3034 21.1287C17.4678 21.5707 17.5348 22.0423 17.5 22.5119V26.3102C17.5 26.6782 17.724 27.1107 18.4334 26.9746C21.5891 25.9363 24.2679 23.8211 25.9899 21.0078C27.7119 18.1946 28.3647 14.8671 27.8312 11.6214C27.2978 8.37573 25.613 5.4238 23.0787 3.29436C20.5443 1.16492 17.326 -0.0029229 14 5.49389e-06Z" fill="#DE832E"/>
</g>
<defs>
<clipPath id="clip0_330_26">
<rect width="28" height="27" fill="white"/>
</clipPath>
</defs>
</svg>
