<svg xmlns="http://www.w3.org/2000/svg" width="38.374" height="37.384" viewBox="0 0 38.374 37.384">
  <path id="github" d="M82.689,76.3a18.679,18.679,0,0,0-6.171,36.313c.981.246.831-.451.831-.927v-3.236c-5.666.664-5.9-3.086-6.276-3.712-.768-1.311-2.585-1.645-2.042-2.271,1.29-.664,2.605.167,4.129,2.418,1.1,1.633,3.253,1.357,4.342,1.086a5.267,5.267,0,0,1,1.449-2.539c-5.871-1.052-8.317-4.635-8.317-8.894a8.219,8.219,0,0,1,2.017-5.5,7.284,7.284,0,0,1,.2-5.01C75.282,83.812,77.8,85.766,78,85.92a19.744,19.744,0,0,1,9.453.013c.472-.359,2.81-2.038,5.065-1.833a7.335,7.335,0,0,1,.23,4.927,8.223,8.223,0,0,1,2.042,5.524c0,4.267-2.463,7.854-8.351,8.889a5.324,5.324,0,0,1,1.591,3.8v4.7c.033.376,0,.747.626.747A18.681,18.681,0,0,0,82.689,76.3Z" transform="translate(-63.5 -75.8)" fill="#f2f2f2" stroke="#17181a" stroke-width="1"/>
</svg>
